<svg id="Layer_1" data-name="Layer 1" xmlns="http://www.w3.org/2000/svg" viewBox="0 0 256 256"><defs><style>.cls-1{fill:none;}.cls-2{fill:#fff;}.cls-3{fill:#d4d81e;}.cls-4{fill:#b4b410;}</style></defs><title>Keep</title><polygon class="cls-1" points="175.02 138.05 174.99 138.03 160.38 146.43 160.38 146.5 175.12 138.02 175.12 137.95 175.02 138.01 175.02 138.05"/><polygon class="cls-2" points="175.12 137.95 175.12 100.25 175.02 100.19 175.02 138.01 175.12 137.95"/><polygon class="cls-2" points="142.37 115.6 142.37 115.53 127.61 124.03 127.61 165.3 127.73 165.23 127.73 124.03 142.37 115.6"/><polyline class="cls-3" points="113.08 94.93 128 86.29 128 69.8 95.16 51.29 95.16 67.62 113.08 77.65"/><polyline class="cls-4" points="142.13 77.65 160.19 67.45 160.19 50.96 128 69.8 128 86.29 128 86.29 142.13 94.93"/><polygon class="cls-3" points="175.02 138.01 174.99 138.03 175.02 138.05 175.02 138.01"/><polygon class="cls-3" points="159.69 88.35 142.13 77.65 142.13 81.14 142.13 94.79 148.67 98.87 159.41 105.13 141.67 115.53 141.67 115.6 159.41 105.13 159.41 129.47 174.29 138.03 174.33 138.01 174.33 100.19 174.33 96.78 159.69 88.35"/><polyline class="cls-4" points="113.08 77.65 95.16 88.26 80.89 97.28 80.89 100.42 80.89 138.11 80.89 138.11 95.04 129.57 95.04 105.23 106.11 98.83 113.08 94.93"/><polygon class="cls-3" points="48.7 173.6 127.22 218.98 127.7 166.07 127.22 123.98 112.97 116.32 95.05 106 95.05 130.35 95.05 147.27 80.89 138.11 80.89 138.11 80.89 138.11 80.89 101.21 80.89 97.28 48.7 78.78 48.7 173.6"/><polyline class="cls-4" points="127.22 219.04 207.3 172.65 207.3 119.27 207.3 119.23 207.3 77.65 174.33 96.81 174.33 100.25 174.33 137.95 174.33 138.02 159.6 146.5 159.41 146.43 159.41 129.6 159.41 105.13 141.58 115.6 127.22 123.98"/></svg>