<svg id="Layer_1" data-name="Layer 1" xmlns="http://www.w3.org/2000/svg" viewBox="0 0 716 237"><defs><style>.cls-1{fill:#fff;}.cls-2{fill:none;}.cls-3{fill:#d4d81e;}.cls-4{fill:#b4b410;}</style></defs><title>Keep</title><path class="cls-1" d="M293.65,88v31.72L327.93,88h7.6l-26.35,24.37L336.77,147H329.5L305,116.26l-11.32,10.49V147H288V88Z"/><path class="cls-1" d="M438.29,88V92.8H403.18v21.31h32.88v4.79H403.18V142.2H438.7V147H397.57V88Z"/><path class="cls-1" d="M543.28,88V92.8H508.17v21.31H541v4.79H508.17V142.2h35.52V147H502.55V88Z"/><path class="cls-1" d="M633.73,88a21.88,21.88,0,0,1,7.19,1.12,15.15,15.15,0,0,1,5.53,3.3A14.62,14.62,0,0,1,650,97.76,21,21,0,0,1,650,112a14.61,14.61,0,0,1-3.55,5.33,15.15,15.15,0,0,1-5.53,3.3,21.88,21.88,0,0,1-7.19,1.12H613.16V147h-5.62V88Zm-1.24,28.91a14.53,14.53,0,0,0,9.5-3q3.63-3,3.63-9.09T642,95.78a14.53,14.53,0,0,0-9.5-3H613.16v24.12Z"/><polygon class="cls-2" points="191.09 129.55 191.05 129.53 176.44 137.93 176.44 138 191.18 129.52 191.18 129.45 191.09 129.51 191.09 129.55"/><polygon class="cls-1" points="191.18 129.45 191.18 91.75 191.09 91.69 191.09 129.51 191.18 129.45"/><polygon class="cls-1" points="158.43 107.1 158.43 107.03 143.67 115.53 143.67 156.8 143.79 156.73 143.79 115.53 158.43 107.1"/><polyline class="cls-3" points="129.14 86.43 144.06 77.79 144.06 61.3 111.22 42.79 111.22 59.12 129.14 69.15"/><polyline class="cls-4" points="158.19 69.15 176.25 58.95 176.25 42.46 144.06 61.3 144.06 77.79 144.06 77.79 158.19 86.43"/><polygon class="cls-3" points="191.09 129.51 191.05 129.53 191.09 129.55 191.09 129.51"/><polygon class="cls-3" points="175.75 79.85 158.19 69.15 158.19 72.64 158.19 86.29 164.73 90.37 175.47 96.63 157.73 107.03 157.73 107.1 175.47 96.63 175.47 120.97 190.35 129.53 190.39 129.51 190.39 91.69 190.39 88.28 175.75 79.85"/><polyline class="cls-4" points="129.14 69.15 111.22 79.76 96.95 88.78 96.95 91.92 96.95 129.61 96.95 129.61 111.1 121.07 111.1 96.73 122.17 90.33 129.14 86.43"/><polygon class="cls-3" points="64.76 165.1 143.28 210.48 143.76 157.57 143.28 115.48 129.03 107.82 111.11 97.5 111.11 121.85 111.11 138.77 96.95 129.61 96.95 129.61 96.95 129.61 96.95 92.71 96.95 88.78 64.76 70.28 64.76 165.1"/><polyline class="cls-4" points="143.28 210.54 223.36 164.15 223.36 110.77 223.36 110.73 223.36 69.15 190.39 88.31 190.39 91.75 190.39 129.45 190.39 129.52 175.66 138 175.47 137.93 175.47 121.1 175.47 96.63 157.64 107.1 143.28 115.48"/></svg>