<svg id="Layer_1" data-name="Layer 1" xmlns="http://www.w3.org/2000/svg" viewBox="0 0 716 237"><defs><style>.cls-1{fill:#fff}.cls-2{fill:none}.cls-3{fill:#d4d81e}.cls-4{fill:#b4b410}</style></defs><title>Keep</title><path class="cls-1" d="M293.65 88v31.72L327.93 88h7.6l-26.35 24.37L336.77 147h-7.27L305 116.26l-11.32 10.49V147H288V88zm144.64 0v4.8h-35.11v21.31h32.88v4.79h-32.88v23.3h35.52v4.8h-41.13V88zm104.99 0v4.8h-35.11v21.31H541v4.79h-32.83v23.3h35.52v4.8h-41.14V88zm90.45 0a21.88 21.88 0 0 1 7.19 1.12 15.15 15.15 0 0 1 5.53 3.3 14.62 14.62 0 0 1 3.55 5.34 21 21 0 0 1 0 14.24 14.61 14.61 0 0 1-3.55 5.33 15.15 15.15 0 0 1-5.53 3.3 21.88 21.88 0 0 1-7.19 1.12h-20.57V147h-5.62V88zm-1.24 28.91a14.53 14.53 0 0 0 9.5-3q3.63-3 3.63-9.09T642 95.78a14.53 14.53 0 0 0-9.5-3h-19.34v24.12z"/><path class="cls-2" d="M191.09 129.55l-.04-.02-14.61 8.4v.07l14.74-8.48v-.07l-.09.06v.04z"/><path class="cls-1" d="M191.18 129.45v-37.7l-.09-.06v37.82l.09-.06zm-32.75-22.35v-.07l-14.76 8.5v41.27l.12-.07v-41.2l14.64-8.43z"/><path class="cls-3" d="M129.14 86.43l14.92-8.64V61.3l-32.84-18.51v16.33l17.92 10.03"/><path class="cls-4" d="M158.19 69.15l18.06-10.2V42.46L144.06 61.3v16.49l14.13 8.64"/><path class="cls-3" d="M191.09 129.51l-.04.02.04.02v-.04zm-15.34-49.66l-17.56-10.7v17.14l6.54 4.08 10.74 6.26-17.74 10.4v.07l17.74-10.47v24.34l14.88 8.56.04-.02V88.28l-14.64-8.43z"/><path class="cls-4" d="M129.14 69.15l-17.92 10.61-14.27 9.02v40.83l14.15-8.54V96.73l11.07-6.4 6.97-3.9"/><path class="cls-3" d="M64.76 165.1l78.52 45.38.48-52.91-.48-42.09-14.25-7.66-17.92-10.32v41.27l-14.16-9.16V88.78l-32.19-18.5v94.82z"/><path class="cls-4" d="M143.28 210.54l80.08-46.39v-95l-32.97 19.16v41.21L175.66 138l-.19-.07v-41.3l-17.83 10.47-14.36 8.38"/></svg>